<?xml version="1.0" standalone="no"?>
<!DOCTYPE svg PUBLIC "-//W3C//DTD SVG 20010904//EN"
 "http://www.w3.org/TR/2001/REC-SVG-20010904/DTD/svg10.dtd">
<svg version="1.0" xmlns="http://www.w3.org/2000/svg"
 width="600.000000pt" height="551.000000pt" viewBox="0 0 600.000000 551.000000"
 preserveAspectRatio="xMidYMid meet">

<g transform="translate(0.000000,551.000000) scale(0.100000,-0.100000)"
fill="#000000" stroke="none">
<path d="M5738 5387 c-6 -122 -29 -184 -91 -244 -58 -56 -228 -159 -307 -184
-71 -24 -115 -50 -130 -79 -6 -10 -17 -53 -24 -94 -14 -71 -42 -143 -52 -133
-3 2 0 17 6 33 9 24 50 186 50 198 0 4 -57 -32 -188 -116 -31 -21 -87 -60
-124 -87 -78 -56 -186 -91 -284 -91 -32 0 -64 -4 -71 -8 -6 -4 -25 -42 -42
-85 -33 -84 -88 -197 -96 -197 -2 0 5 21 16 48 20 45 69 205 69 223 0 5 -18
-9 -40 -31 -73 -73 -204 -123 -395 -150 -44 -6 -147 -22 -230 -35 -82 -13
-204 -29 -270 -35 -366 -33 -563 -92 -742 -219 -206 -146 -316 -292 -443 -586
-53 -121 -128 -260 -136 -252 -7 7 43 199 76 288 37 102 98 205 220 368 54 72
108 148 120 168 19 33 14 30 -48 -29 -39 -36 -139 -112 -222 -168 -83 -57
-179 -128 -213 -159 -83 -77 -177 -224 -309 -486 -60 -121 -113 -222 -115
-225 -16 -15 13 174 48 306 21 84 39 156 39 161 -1 18 -183 -342 -220 -434
-64 -162 -81 -262 -87 -532 -5 -222 -6 -233 -22 -205 -11 21 -17 65 -19 163
-4 144 -14 155 -32 34 -5 -42 -6 -101 0 -153 4 -47 11 -114 14 -150 l6 -65
-18 65 c-33 124 -86 177 -165 167 -22 -3 -49 -15 -61 -27 l-21 -21 27 12 c39
17 82 -3 128 -63 58 -73 82 -146 83 -253 1 -86 -14 -185 -32 -214 -12 -19 -49
-5 -65 27 -7 15 -17 54 -21 87 -8 68 -17 90 -44 104 -18 10 -18 9 0 -26 11
-21 19 -51 19 -68 0 -31 12 -86 26 -119 7 -18 4 -19 -52 -12 -121 14 -209 83
-220 173 -7 54 26 106 64 101 24 -3 28 -8 32 -48 l5 -44 18 28 c57 87 9 196
-87 196 -125 0 -137 -228 -24 -443 34 -64 107 -137 137 -137 39 0 30 -18 -15
-29 -130 -33 -246 86 -248 256 -1 40 -4 69 -8 65 -23 -23 -51 -126 -55 -203
-7 -101 4 -142 50 -189 49 -51 88 -63 221 -68 l120 -5 -40 -21 c-35 -19 -55
-21 -186 -21 -81 0 -141 -3 -135 -6 7 -4 52 -14 102 -24 128 -25 194 -16 277
39 26 17 25 13 -26 -95 -59 -126 -143 -336 -201 -504 -21 -60 -40 -111 -41
-113 -1 -2 -73 -5 -161 -7 -179 -5 -212 -7 -419 -30 -82 -9 -153 -20 -159 -26
-5 -5 -25 -9 -45 -9 -64 0 -184 -92 -204 -158 -17 -54 36 -127 124 -172 82
-42 328 -111 460 -130 36 -5 103 -14 150 -20 47 -7 90 -16 95 -20 9 -7 687
-14 1071 -11 83 0 177 -4 210 -9 82 -14 256 -2 252 17 -6 30 -118 63 -243 73
-66 5 -154 14 -196 20 -41 6 -151 15 -245 20 -185 10 -210 14 -219 38 -9 24 8
34 72 43 47 7 42 7 -32 3 -49 -3 -105 -8 -123 -12 l-34 -7 41 -23 c65 -37 88
-40 406 -67 226 -19 316 -30 365 -46 36 -12 69 -25 74 -29 10 -10 -118 -25
-133 -16 -5 4 -267 8 -580 11 -314 2 -577 7 -585 12 -12 7 -10 16 15 53 17 25
50 83 74 130 24 47 60 101 80 120 20 19 48 55 62 80 14 25 41 64 59 86 32 40
37 42 104 49 40 4 105 2 153 -4 45 -6 138 -13 207 -15 69 -2 166 -9 215 -15
50 -7 117 -13 150 -15 33 -2 103 -8 155 -14 52 -6 142 -14 200 -17 58 -3 150
-8 205 -11 55 -3 105 -10 111 -15 7 -6 43 -9 80 -8 38 0 107 -4 154 -10 121
-15 888 -17 1110 -3 102 7 230 14 285 16 55 2 145 10 200 16 55 6 119 12 142
13 23 1 45 5 49 10 4 4 20 7 35 7 34 0 181 27 226 41 17 5 74 16 125 24 95 14
250 55 289 76 12 6 40 12 63 14 87 5 176 38 305 114 55 33 66 37 56 21 -15
-25 35 9 81 54 95 93 95 192 1 309 -32 38 -111 103 -159 128 -15 8 -27 17 -27
22 -1 4 -1 10 -1 15 0 4 -4 2 -8 -5 -13 -20 -55 -4 -49 18 3 11 2 20 -1 20 -4
1 -16 3 -27 4 -11 1 -36 12 -55 24 -19 11 -45 21 -57 21 -13 0 -23 4 -23 9 0
5 -15 13 -32 16 -18 4 -40 13 -48 19 -21 18 -87 35 -172 46 -40 5 -74 13 -76
19 -2 7 -40 11 -95 12 -115 1 -175 16 -72 18 111 2 53 23 -67 25 -64 1 -101 5
-106 13 -4 7 -53 16 -111 22 -56 6 -107 14 -113 17 -6 4 -8 -1 -3 -15 8 -25
-7 -27 -86 -10 -36 8 -47 14 -38 20 10 6 7 9 -11 9 -39 1 -167 2 -250 1 -41 0
-127 3 -190 7 -63 5 -125 5 -138 0 -12 -4 -80 -12 -150 -18 -70 -5 -145 -15
-167 -21 -22 -6 -63 -8 -93 -5 -63 7 -170 -9 -227 -34 -22 -10 -72 -25 -111
-33 -66 -13 -125 -36 -97 -37 21 0 147 30 187 46 42 16 83 23 186 30 36 2 108
11 160 20 129 21 406 28 565 15 72 -6 227 -15 345 -21 118 -6 262 -19 320 -30
58 -10 128 -22 155 -25 73 -10 226 -46 255 -60 14 -7 30 -10 37 -8 16 6 269
-75 323 -103 25 -13 50 -24 56 -24 6 0 17 -7 25 -16 7 -8 31 -25 53 -36 99
-50 208 -172 226 -254 25 -111 -115 -219 -367 -284 -23 -6 -48 -16 -55 -23 -7
-7 -33 -18 -58 -25 -474 -119 -630 -147 -887 -157 -73 -2 -177 -11 -230 -19
-54 -8 -163 -18 -243 -21 -237 -12 -881 -8 -1080 5 -102 7 -255 14 -340 16
-85 2 -207 10 -270 18 -169 22 -542 54 -638 55 -46 1 -88 3 -93 6 -5 3 -92 8
-195 10 -102 2 -188 5 -189 7 -2 2 10 31 26 64 22 43 32 83 39 146 5 47 14
105 20 129 15 57 143 359 152 359 22 0 33 -58 39 -215 7 -178 19 -235 60 -285
l21 -25 -8 30 c-9 37 -13 441 -4 455 8 12 42 -23 64 -65 l16 -30 0 48 0 48 62
-52 c35 -29 78 -58 96 -66 51 -21 132 -34 171 -27 35 7 33 8 -49 35 -46 15
-97 38 -114 50 -51 38 -136 112 -136 120 0 4 14 10 30 14 23 5 47 -1 98 -25
73 -34 155 -50 166 -31 4 6 1 11 -7 11 -8 0 -41 14 -73 31 -108 58 -133 69
-161 70 -25 0 -26 1 -8 9 11 5 70 9 130 9 65 1 135 7 170 16 62 16 230 93 222
101 -2 3 -16 0 -31 -6 -46 -17 -213 -33 -274 -25 l-57 7 90 23 c122 31 240 81
423 178 l153 82 -68 8 c-38 4 -141 5 -230 2 -90 -4 -163 -4 -163 0 0 18 99 46
197 56 224 21 270 28 363 58 104 33 223 91 349 170 45 29 114 67 154 87 86 41
123 76 184 169 64 96 101 180 173 390 72 211 123 323 184 408 60 85 73 95 304
256 245 172 375 251 496 304 50 22 95 43 100 48 9 8 -65 49 -127 69 -53 17
-41 22 24 10 30 -6 95 -11 144 -11 139 -1 195 26 385 186 47 39 141 112 210
161 199 141 291 245 389 440 75 150 131 359 131 488 -1 98 -52 268 -89 290 -4
3 -11 -40 -13 -97z m-1138 -1077 c-8 -5 -19 -10 -25 -10 -5 0 -3 5 5 10 8 5
20 10 25 10 6 0 3 -5 -5 -10z m-41 -14 c-3 -3 -54 -26 -114 -52 -164 -69 -513
-240 -681 -334 -421 -235 -787 -484 -1134 -773 -175 -146 -569 -538 -701 -697
-221 -266 -458 -610 -563 -818 -15 -30 -30 -52 -33 -49 -8 8 133 276 212 402
502 805 1298 1502 2290 2005 276 140 759 350 724 316z m-1635 -1024 c-635
-611 -1185 -1333 -1458 -1915 -55 -116 -146 -347 -146 -369 0 -19 -64 -111
-105 -153 -38 -37 -72 -45 -82 -19 -3 8 4 52 17 97 50 185 164 453 281 660 74
132 283 443 383 572 295 378 727 824 1116 1153 47 40 87 72 90 72 3 -1 -40
-45 -96 -98z m2593 -2488 c-3 -3 -12 -4 -19 -1 -8 3 -5 6 6 6 11 1 17 -2 13
-5z m-4537 -125 c0 -21 -42 -177 -85 -314 -24 -77 -47 -152 -50 -168 -5 -27
-6 -27 -35 -12 -16 8 -75 24 -132 36 -249 49 -346 72 -403 94 -164 63 -235
112 -235 162 0 18 14 40 44 69 64 61 157 85 461 119 83 10 152 19 154 21 11
10 281 3 281 -7z m100 -53 c0 -2 -8 -10 -17 -17 -16 -13 -17 -12 -4 4 13 16
21 21 21 13z m-30 -39 c0 -2 -12 -14 -27 -28 l-28 -24 24 28 c23 25 31 32 31
24z"/>
<path d="M3848 1743 c6 -2 18 -2 25 0 6 3 1 5 -13 5 -14 0 -19 -2 -12 -5z"/>
<path d="M2848 1524 c-57 -35 -73 -54 -42 -50 9 1 23 11 30 21 7 10 30 28 51
41 21 13 34 23 28 23 -5 0 -36 -16 -67 -35z"/>
<path d="M2717 1377 c-11 -29 -9 -43 4 -30 6 6 9 19 7 29 -3 18 -4 18 -11 1z"/>
<path d="M1640 350 c-25 -4 9 -5 75 -2 66 2 122 6 124 8 7 7 -152 1 -199 -6z"/>
<path d="M2728 355 c-3 -3 -101 -8 -219 -11 -118 -3 -216 -8 -219 -11 -3 -3
144 -4 325 -2 287 2 337 1 384 -14 30 -9 72 -17 93 -17 47 0 229 -38 243 -51
6 -6 3 -15 -7 -25 -14 -15 -19 -15 -53 1 -33 16 -39 17 -68 3 l-32 -16 42 -11
c50 -14 116 -5 146 20 20 16 20 19 7 32 -23 23 -100 46 -209 62 -54 8 -127 21
-162 30 -60 14 -259 21 -271 10z"/>
<path d="M1880 339 c19 -5 98 -11 175 -14 100 -3 123 -2 80 4 -97 14 -296 21
-255 10z"/>
<path d="M2700 261 l-65 -6 40 -13 c22 -7 83 -17 135 -22 133 -14 206 -30 189
-41 -8 -5 -24 -9 -36 -9 -31 0 -38 -17 -12 -30 28 -15 263 -10 279 6 9 9 2 17
-24 34 -33 20 -40 31 -37 52 1 8 -29 13 -161 28 -100 10 -197 11 -308 1z"/>
<path d="M3300 183 c-61 -11 -39 -23 42 -23 88 0 118 5 118 21 0 9 -113 10
-160 2z"/>
<path d="M2408 142 c-10 -2 -18 -7 -18 -12 0 -15 17 -20 38 -13 24 10 7 31
-20 25z"/>
<path d="M603 133 c9 -2 23 -2 30 0 6 3 -1 5 -18 5 -16 0 -22 -2 -12 -5z"/>
<path d="M3378 133 c6 -2 18 -2 25 0 6 3 1 5 -13 5 -14 0 -19 -2 -12 -5z"/>
<path d="M523 123 c9 -2 23 -2 30 0 6 3 -1 5 -18 5 -16 0 -22 -2 -12 -5z"/>
<path d="M663 123 c9 -2 25 -2 35 0 9 3 1 5 -18 5 -19 0 -27 -2 -17 -5z"/>
<path d="M448 113 c6 -2 18 -2 25 0 6 3 1 5 -13 5 -14 0 -19 -2 -12 -5z"/>
<path d="M3240 111 c0 -5 9 -7 20 -4 11 3 20 7 20 9 0 2 -9 4 -20 4 -11 0 -20
-4 -20 -9z"/>
<path d="M764 95 c-24 -18 -7 -19 26 0 16 9 19 14 9 15 -8 0 -24 -7 -35 -15z"/>
<path d="M964 72 c3 -5 -17 -13 -45 -18 -27 -6 -49 -7 -49 -2 0 4 10 8 22 8
12 0 19 2 16 5 -3 4 -29 3 -58 -1 -35 -5 -47 -10 -38 -16 8 -5 -3 -6 -27 -3
-41 6 -72 -5 -62 -23 11 -17 80 -21 207 -11 266 20 315 28 299 43 -2 3 -59 6
-126 8 -66 2 -116 6 -109 10 6 5 1 8 -12 8 -13 0 -21 -4 -18 -8z"/>
<path d="M1508 53 c-42 -6 -34 -21 15 -28 48 -7 131 10 122 25 -6 10 -83 11
-137 3z"/>
<path d="M420 40 c0 -5 7 -7 15 -4 8 4 15 8 15 10 0 2 -7 4 -15 4 -8 0 -15 -4
-15 -10z"/>
</g>
</svg>
